PathFileType	4	(X/Y/Z)	c:/Users/goper/Files/vsCode/490R/osim_files/C15/C15_Fast_04.trc
DataRate	CameraRate	NumFrames	NumMarkers	Units                	OrigDataRate	OrigDataStartFrame	OrigNumFrames
250.00	250.00	10	36	mm	250.0	2075	2766
                Frame#	Time	LPSIS			LASIS			LTH1			LTH2			LTH3			LTH4			LLFE			LMFE			LSH1			LSH2			LSH3			LSH4			LLMAL			LMMAL			LCAL			LMTP5			LTOE			LMTP1			RPSIS			RASIS			RTH1			RTH2			RTH3			RTH4			RLFE			RMFE			RSH1			RSH2			RSH3			RSH4			RLMAL			RMMAL			RCAL			RMTP1			RTOE			RMTP5		
		X1	Y1	Z1	X2	Y2	Z2	X3	Y3	Z3	X4	Y4	Z4	X5	Y5	Z5	X6	Y6	Z6	X7	Y7	Z7	X8	Y8	Z8	X9	Y9	Z9	X10	Y10	Z10	X11	Y11	Z11	X12	Y12	Z12	X13	Y13	Z13	X14	Y14	Z14	X15	Y15	Z15	X16	Y16	Z16	X17	Y17	Z17	X18	Y18	Z18	X19	Y19	Z19	X20	Y20	Z20	X21	Y21	Z21	X22	Y22	Z22	X23	Y23	Z23	X24	Y24	Z24	X25	Y25	Z25	X26	Y26	Z26	X27	Y27	Z27	X28	Y28	Z28	X29	Y29	Z29	X30	Y30	Z30	X31	Y31	Z31	X32	Y32	Z32	X33	Y33	Z33	X34	Y34	Z34	X35	Y35	Z35	X36	Y36	Z36

2075	8.29600	0.00000	0.00000	0.00000	-3844.31567	1014.96594	309.35391	0.00000	0.00000	0.00000	0.00000	0.00000	0.00000	0.00000	0.00000	0.00000	-3900.79663	600.90070	393.89880	0.00000	0.00000	0.00000	-3880.33521	520.42603	375.19250	-3905.44580	494.04672	253.03392	0.00000	0.00000	0.00000	0.00000	0.00000	0.00000	0.00000	0.00000	0.00000	-3581.63477	208.00754	227.42294	0.00000	0.00000	0.00000	-3532.67139	277.37939	255.79535	0.00000	0.00000	0.00000	-3672.29639	469.59695	200.06386	0.00000	0.00000	0.00000	0.00000	0.00000	0.00000	-3849.13574	1017.34088	60.72942	-3827.19458	645.38470	17.29075	0.00000	0.00000	0.00000	-3885.35571	650.08319	31.81990	-3884.94092	602.49646	38.25306	-3845.00708	508.98816	62.14300	0.00000	0.00000	0.00000	-3760.61035	406.88248	44.13710	0.00000	0.00000	0.00000	-3822.06006	394.29272	46.53401	-3808.93066	353.32367	44.62444	0.00000	0.00000	0.00000	-3788.71118	127.73806	203.91127	0.00000	0.00000	0.00000	0.00000	0.00000	0.00000	0.00000	0.00000	0.00000	-752.20966	734.71533	2361.53076
2076	8.30000	0.00000	0.00000	0.00000	-3848.95825	1015.82849	308.73984	0.00000	0.00000	0.00000	0.00000	0.00000	0.00000	0.00000	0.00000	0.00000	-3908.48242	602.78528	393.49188	0.00000	0.00000	0.00000	-3888.41650	521.88434	374.50595	-3913.42822	496.06320	252.47816	0.00000	0.00000	0.00000	0.00000	0.00000	0.00000	0.00000	0.00000	0.00000	0.00000	0.00000	0.00000	0.00000	0.00000	0.00000	-3543.75659	272.62494	255.80200	0.00000	0.00000	0.00000	-3677.06909	470.66165	197.47151	0.00000	0.00000	0.00000	0.00000	0.00000	0.00000	-3853.14673	1017.72736	60.19739	-3828.99194	645.64478	17.17279	0.00000	0.00000	0.00000	-3887.27319	650.04181	31.59394	-3886.60376	602.42609	38.05443	-3846.01123	509.07050	61.88330	0.00000	0.00000	0.00000	-3761.18848	407.17227	44.05164	0.00000	0.00000	0.00000	-3822.72095	394.45993	46.37680	-3809.48657	353.53851	44.50998	0.00000	0.00000	0.00000	-3788.91211	127.99928	203.88371	0.00000	0.00000	0.00000	0.00000	0.00000	0.00000	0.00000	0.00000	0.00000	-752.24213	734.71857	2361.55884
2077	8.30400	0.00000	0.00000	0.00000	-3853.63892	1016.67047	308.15329	0.00000	0.00000	0.00000	0.00000	0.00000	0.00000	0.00000	0.00000	0.00000	-3916.22559	604.69788	393.06192	0.00000	0.00000	0.00000	-3896.27710	523.21967	373.75833	-3921.21484	498.09772	251.87843	0.00000	0.00000	0.00000	0.00000	0.00000	0.00000	0.00000	0.00000	0.00000	0.00000	0.00000	0.00000	-3623.28564	246.82565	183.67401	-3555.07495	267.79407	255.80942	0.00000	0.00000	0.00000	-3681.81323	471.69943	194.84697	0.00000	0.00000	0.00000	0.00000	0.00000	0.00000	-3857.15552	1018.05945	59.63484	-3830.80859	645.93506	17.03036	0.00000	0.00000	0.00000	-3889.19092	650.00330	31.36247	-3888.29883	602.37274	37.79511	-3847.03638	509.17542	61.64000	0.00000	0.00000	0.00000	-3761.88940	407.52991	43.99174	0.00000	0.00000	0.00000	-3823.41406	394.61377	46.19986	-3810.01367	353.78458	44.35660	0.00000	0.00000	0.00000	-3789.07251	128.27254	203.86693	0.00000	0.00000	0.00000	0.00000	0.00000	0.00000	0.00000	0.00000	0.00000	-752.22601	734.72662	2361.51807
2078	8.30800	0.00000	0.00000	0.00000	-3858.29980	1017.48157	307.60254	0.00000	0.00000	0.00000	0.00000	0.00000	0.00000	0.00000	0.00000	0.00000	-3923.82690	606.57172	392.60736	0.00000	0.00000	0.00000	0.00000	0.00000	0.00000	-3928.91187	500.08313	251.26584	0.00000	0.00000	0.00000	0.00000	0.00000	0.00000	0.00000	0.00000	0.00000	0.00000	0.00000	0.00000	-3628.59106	247.22958	180.74361	-3566.56250	262.68762	255.78525	0.00000	0.00000	0.00000	-3686.56860	472.74609	192.26106	0.00000	0.00000	0.00000	0.00000	0.00000	0.00000	-3861.14136	1018.39496	59.13154	-3832.68115	646.28931	16.90160	0.00000	0.00000	0.00000	-3891.08765	649.90747	31.07709	-3889.95435	602.31860	37.52457	-3848.06470	509.31049	61.35316	0.00000	0.00000	0.00000	-3762.58740	407.92548	43.92597	0.00000	0.00000	0.00000	-3824.03394	394.78369	45.99335	-3810.47705	353.99899	44.15908	0.00000	0.00000	0.00000	-3789.28149	128.54729	203.84212	0.00000	0.00000	0.00000	0.00000	0.00000	0.00000	0.00000	0.00000	0.00000	-752.24408	734.73242	2361.59253
2079	8.31200	0.00000	0.00000	0.00000	-3862.93091	1018.24976	307.05771	0.00000	0.00000	0.00000	0.00000	0.00000	0.00000	0.00000	0.00000	0.00000	-3931.41162	608.42572	392.12805	0.00000	0.00000	0.00000	-3668.44800	464.89838	209.26057	-3936.39136	501.92804	250.61986	0.00000	0.00000	0.00000	0.00000	0.00000	0.00000	0.00000	0.00000	0.00000	0.00000	0.00000	0.00000	0.00000	0.00000	0.00000	-3568.69189	243.80487	245.03014	-3690.22925	81.42123	168.01259	0.00000	0.00000	0.00000	-3740.13159	89.91247	294.88553	0.00000	0.00000	0.00000	-3865.13159	1018.70111	58.60381	-3834.45508	646.54352	16.75488	0.00000	0.00000	0.00000	-3892.99878	649.79785	30.83657	-3891.61475	602.20612	37.29379	-3848.99365	509.40567	61.10421	0.00000	0.00000	0.00000	0.00000	0.00000	0.00000	0.00000	0.00000	0.00000	-3824.67822	394.96692	45.75478	-3810.85767	354.19492	43.98394	0.00000	0.00000	0.00000	-3789.48560	128.79915	203.82579	0.00000	0.00000	0.00000	0.00000	0.00000	0.00000	0.00000	0.00000	0.00000	-752.21136	734.70276	2361.57446
2080	8.31600	0.00000	0.00000	0.00000	-3867.57275	1018.95935	306.50552	0.00000	0.00000	0.00000	0.00000	0.00000	0.00000	0.00000	0.00000	0.00000	-3938.79810	610.19287	391.58182	0.00000	0.00000	0.00000	0.00000	0.00000	0.00000	-3943.81470	503.79373	250.00041	0.00000	0.00000	0.00000	0.00000	0.00000	0.00000	0.00000	0.00000	0.00000	-3690.21655	111.62615	344.85297	-3756.44531	89.06953	295.44131	0.00000	0.00000	0.00000	0.00000	0.00000	0.00000	-3672.91992	465.56039	206.94514	0.00000	0.00000	0.00000	0.00000	0.00000	0.00000	-3869.08032	1018.92517	58.10797	-3836.29102	646.80273	16.57100	0.00000	0.00000	0.00000	-3894.87866	649.71411	30.55288	-3893.40771	602.22913	36.96391	-3850.01343	509.51843	60.80449	0.00000	0.00000	0.00000	-3763.65234	408.58435	43.87879	0.00000	0.00000	0.00000	-3825.26074	395.10782	45.56709	-3811.27075	354.41452	43.83684	0.00000	0.00000	0.00000	-3789.76782	129.06033	203.80432	0.00000	0.00000	0.00000	0.00000	0.00000	0.00000	0.00000	0.00000	0.00000	-752.19250	734.75513	2361.57251
2081	8.32000	0.00000	0.00000	0.00000	-3872.15381	1019.57483	306.00864	0.00000	0.00000	0.00000	0.00000	0.00000	0.00000	0.00000	0.00000	0.00000	-3946.19067	611.96490	391.06491	0.00000	0.00000	0.00000	-3677.42041	466.27811	204.62985	-3951.12988	505.51773	249.35448	0.00000	0.00000	0.00000	0.00000	0.00000	0.00000	0.00000	0.00000	0.00000	-3706.01099	108.96162	345.31989	0.00000	0.00000	0.00000	0.00000	0.00000	0.00000	0.00000	0.00000	0.00000	0.00000	0.00000	0.00000	-3773.00757	88.35414	296.01389	0.00000	0.00000	0.00000	-3873.07080	1019.16968	57.62455	-3838.14600	647.07587	16.43085	0.00000	0.00000	0.00000	-3896.76318	649.64270	30.32048	-3895.09937	602.15228	36.68535	-3850.97974	509.59576	60.48664	0.00000	0.00000	0.00000	-3764.34741	408.97610	43.87588	0.00000	0.00000	0.00000	-3825.89258	395.26553	45.32696	-3811.73999	354.62994	43.67865	0.00000	0.00000	0.00000	-3790.09497	129.38458	203.76692	0.00000	0.00000	0.00000	0.00000	0.00000	0.00000	0.00000	0.00000	0.00000	-752.18188	734.76978	2361.57593
2082	8.32400	0.00000	0.00000	0.00000	-3876.73926	1020.16479	305.54764	0.00000	0.00000	0.00000	0.00000	0.00000	0.00000	0.00000	0.00000	0.00000	-3953.52271	613.67029	390.52551	0.00000	0.00000	0.00000	0.00000	0.00000	0.00000	-3958.37329	507.15091	248.69014	0.00000	0.00000	0.00000	0.00000	0.00000	0.00000	0.00000	0.00000	0.00000	-3722.04907	106.34827	345.81064	0.00000	0.00000	0.00000	0.00000	0.00000	0.00000	0.00000	0.00000	0.00000	0.00000	0.00000	0.00000	-3789.77417	87.75023	296.49280	0.00000	0.00000	0.00000	-3877.11816	1019.37988	57.16721	-3839.97437	647.33093	16.26667	0.00000	0.00000	0.00000	-3898.66016	649.54144	30.00978	-3894.48535	602.03992	36.98764	-3851.96558	509.67130	60.22350	0.00000	0.00000	0.00000	-3764.89160	409.29700	43.87056	0.00000	0.00000	0.00000	-3826.55786	395.44687	45.11737	-3812.23462	354.84592	43.49350	0.00000	0.00000	0.00000	-3790.36621	129.63869	203.77451	0.00000	0.00000	0.00000	0.00000	0.00000	0.00000	0.00000	0.00000	0.00000	-752.22388	734.76312	2361.56812
2083	8.32800	0.00000	0.00000	0.00000	-3881.33057	1020.67236	305.05600	0.00000	0.00000	0.00000	0.00000	0.00000	0.00000	0.00000	0.00000	0.00000	-3960.77588	615.37225	389.94714	0.00000	0.00000	0.00000	0.00000	0.00000	0.00000	-3965.46826	508.66269	248.07144	0.00000	0.00000	0.00000	0.00000	0.00000	0.00000	0.00000	0.00000	0.00000	-3736.75000	102.52171	345.41348	0.00000	0.00000	0.00000	0.00000	0.00000	0.00000	0.00000	0.00000	0.00000	0.00000	0.00000	0.00000	-3806.52539	87.06350	297.13632	0.00000	0.00000	0.00000	-3881.08130	1019.48541	56.70195	-3841.78540	647.51379	16.11302	0.00000	0.00000	0.00000	-3900.61206	649.43011	29.79771	-3896.07300	601.92682	36.75498	-3852.92432	509.72549	59.93521	0.00000	0.00000	0.00000	-3765.46558	409.63428	43.90257	0.00000	0.00000	0.00000	-3827.20312	395.61938	44.93362	-3812.73315	355.05994	43.33836	0.00000	0.00000	0.00000	-3790.62329	129.87929	203.76306	0.00000	0.00000	0.00000	0.00000	0.00000	0.00000	0.00000	0.00000	0.00000	-752.23309	734.77167	2361.54614
2084	8.33200	0.00000	0.00000	0.00000	-3885.96240	1021.15338	304.59738	0.00000	0.00000	0.00000	0.00000	0.00000	0.00000	0.00000	0.00000	0.00000	-3967.91235	616.99030	389.32376	0.00000	0.00000	0.00000	0.00000	0.00000	0.00000	-3972.56006	510.17453	247.37874	0.00000	0.00000	0.00000	0.00000	0.00000	0.00000	0.00000	0.00000	0.00000	-3754.54517	101.12105	346.94046	0.00000	0.00000	0.00000	0.00000	0.00000	0.00000	0.00000	0.00000	0.00000	0.00000	0.00000	0.00000	-3823.33325	86.44228	297.76465	0.00000	0.00000	0.00000	-3885.10962	1019.65259	56.27507	-3843.65186	647.74713	15.97886	0.00000	0.00000	0.00000	-3902.49146	649.32440	29.53080	-3897.68970	601.83282	36.50638	-3853.99463	509.81570	59.65657	0.00000	0.00000	0.00000	-3766.15112	410.02454	43.91499	0.00000	0.00000	0.00000	-3827.87256	395.81247	44.71767	-3813.19556	355.24927	43.20004	0.00000	0.00000	0.00000	-3790.84692	130.09491	203.74881	0.00000	0.00000	0.00000	0.00000	0.00000	0.00000	0.00000	0.00000	0.00000	-752.24188	734.79120	2361.53760
